<?xml version="1.0" encoding="utf-8"?>
<!-- Generator: Adobe Illustrator 16.0.0, SVG Export Plug-In . SVG Version: 6.00 Build 0)  -->
<!DOCTYPE svg PUBLIC "-//W3C//DTD SVG 1.1//EN" "http://www.w3.org/Graphics/SVG/1.1/DTD/svg11.dtd">
<svg version="1.1" id="Layer_1" xmlns="http://www.w3.org/2000/svg" xmlns:xlink="http://www.w3.org/1999/xlink" x="0px" y="0px"
	 width="12px" height="12px" viewBox="0 0 12 12" enable-background="new 0 0 12 12" xml:space="preserve">
<path fill-rule="evenodd" clip-rule="evenodd" fill="#A7A7A7" d="M1.763,9.024c-0.334,0.334-0.333,0.877,0.001,1.211
	c0.335,0.335,0.877,0.336,1.211,0.002l3.026-3.025l3.031,3.031c0.335,0.335,0.878,0.335,1.212,0.001
	c0.334-0.335,0.334-0.877-0.001-1.212L7.211,6.001l3.026-3.026c0.334-0.334,0.333-0.876-0.002-1.211
	C9.901,1.429,9.358,1.428,9.024,1.763L5.999,4.789L2.967,1.757C2.632,1.422,2.09,1.421,1.755,1.756
	C1.421,2.09,1.421,2.632,1.756,2.967l3.032,3.032L1.763,9.024z"/>
</svg>
