<?xml version="1.0" encoding="utf-8"?>
<!-- Generator: Adobe Illustrator 16.0.0, SVG Export Plug-In . SVG Version: 6.00 Build 0)  -->
<!DOCTYPE svg PUBLIC "-//W3C//DTD SVG 1.1//EN" "http://www.w3.org/Graphics/SVG/1.1/DTD/svg11.dtd">
<svg version="1.1" id="Layer_1" xmlns="http://www.w3.org/2000/svg" xmlns:xlink="http://www.w3.org/1999/xlink" x="0px" y="0px"
	 width="362px" height="81px" viewBox="294 1206 362 81" enable-background="new 294 1206 362 81" xml:space="preserve">
<path fill="#DCA64E" d="M338.6,1219.3c-1.4,0.4-1.4-0.8,0.3-1c6.4-0.8,3.5-13.5-13.1-7.6c-6.1,2.2-9.7,8-2.8,12.3
	c3.1,1.9,8.3,3.7,12.2,6.1c10.5,6.5,3.6,16.2-5.1,21.4c-11.6,7-33.6,5.5-34.5-9c-0.3-4.9,3.8-11.9,8.8-14.3c0.7-0.3,2.2-0.5,0.5,0.8
	c-1.4,1.1-2.6,2.4-3.6,3.9c-1.9,2.9-2.8,6.3-2.9,9.6c-0.1,12.8,18.4,14.1,28.7,8.8c8.7-4.5,12.3-13.4,6.1-18.4
	c-3.2-2.6-10.1-4.4-14-7c-7.7-5.1-3-12.7,4.5-15.4c5.2-1.8,12.8-2.1,16.5-0.3c3.7,1.8,4.9,6,1.7,8.7
	C341.2,1218.3,340.1,1218.9,338.6,1219.3z"/>
<path fill="#DCA64E" d="M363.4,1249.9c-1.9,0-4.3-1.2-2.8-6c0.4-1.3,1.4-3.1,2.8-5.4c1.2-2,0.3-3.4-3.7,0.3
	c-2.2,2.1-6.6,7.8-7.3,10.9c-1.2,0-1.9-1.3-1.6-2.8c0.4-2.3,1.3-4,2.2-5.9c1.7-3.5,3.3-7.3-2.1-2.2c-1.8,1.6-4.2,4.4-7.1,10
	c-0.4,0.8-0.8,0.8-2,0.8c-0.7,0.1-1.2,0-1.7,0.3c2.5-4.9,4.5-9.7,7-14.3c1.3-2.5,2-3.3,3.7-3.2c0.7,0.1,1.4,0.4,2.2,0.2
	c-1.5,0.8-4.4,6-6.2,9.7c1-1.3,2.7-3.2,4.3-4.6c2.5-2.2,5.8-5.5,7.5-4.8c0.9,0.4,1.2,1.2,0.8,2.3c-0.9,2.2-2.5,4.7-3.8,7.2
	c1-1.3,2.7-3.2,4.3-4.6c2.5-2.2,7.8-5.5,9.5-4.8c0,0-5.5,9.7-6.2,13.3c-0.4,2.1,0.2,2.6,0.9,2.6c2.7,0,6-6.5,7.1-8.9
	c0.4-0.9,1.2-0.6,0.7,0.5C370.3,1243.3,367.3,1249.9,363.4,1249.9z"/>
<path fill="#DCA64E" d="M372.9,1248.5c0.8,0.1,1.8-0.5,2.3-1c1.7-1.7,3.4-4.9,4.8-7.8c0.4-0.9,1.1-0.6,0.7,0.5
	c-1.3,2.9-4.3,9.4-8.1,9.4c-3.9,0-3.9-4-2.8-6.7l3.3-8.4c0.4-1-0.3-1.9-0.5-2.2l2.8-0.1c1.6,0,1.6,0.6,1.1,1.8l-4.1,9.6
	c0,0-0.5,1.1-0.6,1.5C371.4,1247,371.5,1248.4,372.9,1248.5z M376.6,1230.3c-1.2,0-2-0.9-1.8-2.1c0.2-1.2,1.3-2.1,2.5-2.1
	c1.2,0,2,0.9,1.8,2.1C378.9,1229.3,377.8,1230.3,376.6,1230.3z"/>
<path fill="#DCA64E" d="M383,1239.7c-0.3,0.9-0.8,2.1-1.1,3.4c-1.5,6.2,2.6,7.1,5.3,3.2c1.7-2.4,3.1-5.2,3.8-6.5
	c0.5-0.9,1.2-0.8,0.8,0.3c-1.3,2.7-4,9.7-9.2,9.7c-5.8,0-3.3-7.1-2.4-10.1c1.6-5.8,4.8-13.2,7.8-18.2c3.7-6.1,9.2-5.4,5.5,2.8
	C391.2,1229.6,388,1235.2,383,1239.7z M391.5,1221.2c-2.5,3.6-6.5,12.8-8.1,16.9c3.7-3.7,7.4-9.8,9.4-14.6
	C393.8,1221.1,394.3,1217.2,391.5,1221.2z"/>
<path fill="#DCA64E" d="M394.7,1249.9c-2.6,0-4.9-1.7-4.9-4.9c-0.1-3.1,1.7-7,4-9.6c2.6-3.1,6.5-5,8.8-3.3c2,1.5,0.5,5-2.8,7.5
	c-1.6,1.2-4.9,2.3-6.3,2.3c-0.8,1.9-1.6,7.1,1.8,7.1c4.5,0,7.3-6.1,8.5-8.8c0.4-0.9,1.4-1,0.9,0.1
	C402.6,1244.2,400.4,1249.9,394.7,1249.9z M396.8,1236c-1.3,1.6-2.6,3.9-3.1,4.8c0.9,0,3.6-0.7,5.5-2.3
	C403.4,1235.1,403.1,1228.4,396.8,1236z"/>
<path fill="#DCA64E" d="M406.9,1249.4c-0.7,0.3-1.4,0.5-2.1,0.5c-6.2,0-5-7.2-2.6-7.3c1.4-2.6,3.1-6,4.4-8.9c0.9-2,2.5-4.2,4.3-4.4
	c0.8-0.1,1.4,0,1.9,0.3c0.9,0.5,0.7,1.3-0.2,0.9c-0.5-0.2-1.1-0.3-1.6-0.1c-2.4,1.1-1.9,4.7-1.1,6.5c0.8,2,2,3.8,1.9,6.1
	c-0.1,2-1.6,4.4-3.7,5.7l0.4,0.1c1.8,0.3,3.3-0.8,4.6-2.4c1.2-1.4,2.8-4.6,3.9-6.7c0.3-0.5,1-0.2,0.8,0.3
	C415.8,1244.2,412.7,1251.1,406.9,1249.4z M403.4,1244.9c-1.6,1.6-1,4.1,1,4.1c0.4,0,0.7-0.1,1-0.2
	C404.4,1248.1,403.5,1246.9,403.4,1244.9z M407.9,1233.2c-1.4,2.8-3.6,7.3-4.8,9.5c0,0,1.1-0.1,1.1,1.6c-0.1,2,1,3.4,2.2,4
	c1.1-0.9,2.1-2.6,2.3-5.4C408.8,1239.7,407.5,1235.5,407.9,1233.2z"/>
<path fill="#DCA64E" d="M455.6,1226.7c-5.8,0.5-10.7,0.4-15.6-1.2c-1.9,2.6-5.6,8.4-7.5,13c-5.3,13.1,2.9,15.5,12.4,7.6
	c5.3-4.5,10.8-11.2,13.5-16.2c3.2-6,5.9-1.8,2.9,1.4c-2.9,3.2-5.8,8.8-6.7,13.8c-1.6,8.7,3.5,7.4,7.6,2.4c1.6-2.1,3.3-4.7,4.5-7.3
	c0.5-1,1.4-1,0.9,0.2c-0.9,2.1-2.9,5.7-4.8,8.2c-1.8,2.4-4.7,4.4-7.6,4.4c-5.7,0-4.4-10.1-2.1-13.2c-4.2,5-13.9,14.8-21.2,11.7
	c-4.9-2.1-4.9-11.2,0.2-20.6c1.3-2.3,2.8-4.5,4.5-6.5c-2.1-1-3.9-2.1-5.2-3.6c-1.4-1.6-1.6-5-0.5-5.8c0.6-0.8,1.5-0.3,0.9,1
	c-0.7,1.5-0.1,2.7,1.1,4.1c1.1,1.3,2.7,2.4,4.5,3.2c6.5-7.2,15.1-13.4,25.1-13.4c5.5,0,8.9,2.7,8.9,6.5
	C471.6,1220.2,467.6,1225.6,455.6,1226.7z M462.9,1211.2c-9.6,0-16.3,6.3-22,13.2c4,1.3,8.2,1.5,14.7,1c8.6-0.7,13.9-4.5,13.9-9.6
	C469.5,1212.7,466.7,1211.2,462.9,1211.2z"/>
<path fill="#DCA64E" d="M479.5,1231.2h-3c-1.8,3-3.8,5.7-6.9,8.5c-0.5,1.3-1.2,5.3-1.2,5.3c-0.8,3.5,1.6,3.9,3.3,2.7
	c2.4-1.8,4.1-5,5.5-7.8c0.4-0.9,1.2-0.7,0.7,0.3c-2.3,4.7-3.1,6.1-5,8c-2.8,2.7-7.9,1.8-7.1-3.9c0.5-3.5,2.4-9.1,4-13.1h-2.7
	c-0.6,0-0.5-1.1,0.1-1.1h3.1c1.2-2.6,2.5-5.1,3.8-7.3c3.6-6.2,9.1-5.4,5.3,2.9c-0.7,1.5-1.4,3-2.2,4.4h2.5
	C480.1,1230.1,480,1231.2,479.5,1231.2z M472.9,1231.2c-1.1,2.5-2.1,5-2.8,6.9c2-2,3.7-4.4,5.2-6.9H472.9z M477.1,1222.6
	c-1.2,1.8-2.4,4.6-3.7,7.5h2.6c1-1.8,1.9-3.6,2.6-5.3C479.5,1222.7,480.3,1218.1,477.1,1222.6z"/>
<path fill="#DCA64E" d="M526.9,1256.4c-2.4-0.6-7.5-1-11.6-0.9c-6.6,9.5-20.6,15.1-26.4,13c-9.6-3.5,0.8-11.7,13.6-13.5
	c2.7-0.4,7.7-0.8,10.9-0.8c2.5-4.3,4.1-7.9,5.2-12.7l0.2-0.9c-3.1,2.9-12.8,10.1-21.3,7.3c-6.4-2.2-10.5-12.2-4.9-23.9
	c-4-4.1-4.9-10.1-0.2-14.9c0.7-0.8,1.5-0.7,0.7,0.4c-3.4,4.3-2.8,9.2,0.4,13c0.3-0.7,0.7-1.3,1.1-2c5.5-8.9,15.9-14,24.2-12.7
	c15.9,2.5,12.4,21.4-9.4,21.7c-5,0.1-10.3-1.3-13.5-3.6c-4.5,9.8-2.5,18.3,3.5,20.2c6.8,2.2,16.2-3.2,17.6-6.7c3-7,6.5-4.9,6.1-2.3
	c-0.7,5.7-3.2,10.8-7,17c4.6,0.1,8.2,0.6,11.3,1.3C528.8,1255.8,528.8,1256.8,526.9,1256.4z M503.1,1256.3
	c-9.1,1.4-20.5,9.2-12.9,10.8c4.6,1,16.3-3,22.4-11.6C509.4,1255.6,506,1255.9,503.1,1256.3z M498,1221.7c-0.6,0.9-1.1,1.9-1.6,2.8
	c3.2,2.4,8.4,3.8,13.7,3.3c17.4-1.8,21.4-16.6,8.8-18.5C511.9,1208.3,502.9,1213.8,498,1221.7z"/>
<path fill="#DCA64E" d="M529.4,1239.7c-0.3,0.9-0.8,2.1-1.1,3.4c-1.5,6.2,2.6,7.1,5.3,3.2c1.7-2.4,3.1-5.2,3.8-6.5
	c0.5-0.9,1.2-0.8,0.8,0.3c-1.3,2.7-4,9.7-9.2,9.7c-5.8,0-3.3-7.1-2.4-10.1c1.6-5.8,4.8-13.2,7.8-18.2c3.7-6.1,9.2-5.4,5.5,2.8
	C537.6,1229.6,534.5,1235.2,529.4,1239.7z M538,1221.2c-2.5,3.6-6.5,12.8-8.1,16.9c3.7-3.7,7.4-9.8,9.4-14.6
	C540.2,1221.1,540.7,1217.2,538,1221.2z"/>
<path fill="#DCA64E" d="M541.1,1249.9c-2.6,0-4.9-1.7-4.9-4.9c-0.1-3.1,1.7-7,4-9.6c2.6-3.1,6.5-5,8.8-3.3c2,1.5,0.5,5-2.8,7.5
	c-1.6,1.2-4.9,2.3-6.3,2.3c-0.8,1.9-1.6,7.1,1.8,7.1c4.5,0,7.3-6.1,8.5-8.8c0.4-0.9,1.4-1,0.9,0.1
	C549,1244.2,546.8,1249.9,541.1,1249.9z M543.2,1236c-1.3,1.6-2.6,3.9-3.1,4.8c0.9,0,3.6-0.7,5.5-2.3
	C549.8,1235.1,549.5,1228.4,543.2,1236z"/>
<path fill="#DCA64E" d="M559.6,1249.9c-1.8,0-4.3-1.2-2.7-6c0.4-1.3,1.4-3.1,2.8-5.4c1.2-2,0.3-3.4-3.7,0.3
	c-1.8,1.6-4.3,4.5-7.2,10.2c-0.4,0.7-0.9,0.8-2,0.8c-0.8,0.1-1.2,0-1.8,0.3c2.5-4.9,4.6-9.8,7.1-14.4c1.3-2.5,2-3.3,3.7-3.2
	c0.7,0.1,1.4,0.4,2.2,0.2c-1.5,0.8-4.4,6-6.2,9.7c1-1.3,2.7-3.2,4.3-4.6c2.5-2.2,7.8-5.5,9.5-4.8c0,0-5.5,9.7-6.2,13.3
	c-0.4,2.1,0.2,2.6,0.8,2.6c2.7,0,6-6.7,7.1-8.9c0.4-0.9,1.2-0.6,0.7,0.5C566.6,1243.3,563.6,1249.9,559.6,1249.9z"/>
<path fill="#DCA64E" d="M590.1,1232.6c-1.1,3.6-5,18.7-12.5,17.1c-2.8-0.6-2.5-4.7-1.8-7c-1.2,2.2-4,7-6.9,7c-1.4,0-2.9-0.9-3.2-2.4
	c-0.5-2.2,0.8-4.1,1.8-6c-0.3,0-0.8-0.2-0.5-0.8l0.9-1.8c1-2,2.1-4.1,2.9-5.7c0.4-0.8,1-1.1,2-1.1h3.1c-1.2,0.9-1.9,1.5-3.3,4.3
	c0,0-2.3,4.7-3.2,6.6c-2.2,4.8-0.6,7.1,2,4.6c3.1-3,7.2-12,8.3-14.5c0.4-0.8,1-1.1,2-1.1h3.1c-0.4,0.4-1.4,0.8-2.1,1.9
	c-1.1,1.8-1.5,2.6-2.8,5.4c-0.6,1.3-4.4,9.3-1.1,9.5c2.9,0.2,5.6-4,7.6-9c-0.7-1.6-0.8-3.8-0.4-5.2c1.3-4.6,5-4.5,4.1-2.3
	C590.2,1232.4,590.1,1232.5,590.1,1232.6z"/>
<path fill="#DCA64E" d="M599.9,1249.3c-1.5,0-2.6-0.6-3.3-1.3c-1.4,1.1-3,1.8-4.5,1.8c-3.9-0.1-4.5-4.8-2.5-9.4
	c2-4.7,6.3-8.8,9.8-8.7c3.9,0.1,4.5,4.8,2.5,9.4c-0.8,1.8-2.4,4.2-4.3,6.1c0.4,0.8,1.2,1.3,2.4,1.3c3.3,0,6-6.4,7.2-8.9
	c0.3-0.5,1.1-0.3,0.8,0.5C607.1,1242,604.3,1249.3,599.9,1249.3z M593.2,1240.1c-2,4.2-2.5,7.8-0.6,8.4c1,0.3,2.3-0.3,3.5-1.3
	c-0.6-0.8-0.8-1.8-0.8-2.5c0.1-1.2,0.5-2.2,1.8-2.2c0.9,0,1.5,0.7,1.5,1.5c0,0.2-0.1,0.4-0.1,0.6c0.6-0.8,1.1-1.8,1.6-2.8
	c2-4.2,2.3-7.9,0.4-8.4C598.3,1232.7,595.1,1236,593.2,1240.1z"/>
<path fill="#DCA64E" d="M617.2,1249.3c-1.5,0-2.6-0.6-3.3-1.3c-1.4,1.1-3,1.8-4.5,1.8c-3.9-0.1-4.5-4.8-2.5-9.4
	c2-4.7,6.3-8.8,9.8-8.7c3.9,0.1,4.5,4.8,2.5,9.4c-0.8,1.8-2.4,4.2-4.3,6.1c0.4,0.8,1.2,1.3,2.4,1.3c3.3,0,6-6.4,7.2-8.9
	c0.3-0.5,1.1-0.3,0.8,0.5C624.4,1242,621.5,1249.3,617.2,1249.3z M610.4,1240.1c-2,4.2-2.5,7.8-0.6,8.4c1,0.3,2.3-0.3,3.5-1.3
	c-0.6-0.8-0.8-1.8-0.8-2.5c0.1-1.2,0.5-2.2,1.8-2.2c0.9,0,1.5,0.7,1.5,1.5c0,0.2-0.1,0.4-0.1,0.6c0.6-0.8,1.1-1.8,1.6-2.8
	c2-4.2,2.3-7.9,0.4-8.4C615.5,1232.7,612.3,1236,610.4,1240.1z"/>
<path fill="#DCA64E" d="M636.3,1242.8c-0.5,1.2-2.1,5.5,0.3,5.5c2.6,0,5.6-6.4,6.6-8.6c0.4-0.9,1.2-0.7,0.8,0.3
	c-1.2,2.9-4.2,9.6-8.3,9.6c-0.8,0-1.6-0.4-2.3-1.4c-0.6-0.9-1-2.4-0.5-4.5c-1.5,2.5-4,6.6-7.5,5.7c-4.8-1.3-2-9.6,1.8-14.2
	c2.9-3.3,7.4-5.2,11.1-3c2.5-4.7,4.7-9.4,6-12.2c1-2.3,1.9-2.8,3.5-2.7c0.7,0.1,1.4,0.3,2.2,0.2
	C648.4,1219.1,639.3,1235.7,636.3,1242.8z M626.9,1241.4c-3.4,6.4-0.3,9.6,4.1,3.4c1.9-2.7,4.5-7.1,6.9-11.6
	C635.3,1230.6,629.6,1236.3,626.9,1241.4z"/>
<path fill="#909094" d="M343.9,1283.9l1.6-0.3l5.8-15.8h1.3l5.6,15.8l1.8,0.3v0.7h-5.2v-0.7l1.8-0.3l-1.4-3.9h-6.9l-1.4,3.9l1.9,0.3
	v0.7h-4.8V1283.9z M354.8,1278.8l-2.3-6.6l-0.8-2.5l-3.2,9.1H354.8z"/>
<path fill="#909094" d="M361.1,1283.9l1.9-0.2v-9.5l-1.6-0.6v-0.5l2.5-0.7l0.4,0.2v1.5c0.2-0.2,0.4-0.4,0.7-0.6
	c0.3-0.2,0.6-0.4,1-0.6c0.4-0.2,0.8-0.3,1.2-0.4c0.4-0.1,0.8-0.2,1.2-0.2c0.2,0,0.5,0,0.6,0c0.2,0,0.3,0,0.4,0.1v1.7
	c-0.2-0.1-0.4-0.1-0.7-0.2s-0.6-0.1-1-0.1c-0.3,0-0.7,0-1,0.1s-0.6,0.1-0.9,0.2c-0.3,0.1-0.5,0.2-0.7,0.3c-0.2,0.1-0.4,0.2-0.6,0.3
	v8.9l3.3,0.2v0.7h-6.7V1283.9z"/>
<path fill="#909094" d="M371,1283.9l1.9-0.2v-9.5l-1.6-0.6v-0.5l2.5-0.7l0.4,0.2v1.5c0.2-0.2,0.4-0.4,0.7-0.6c0.3-0.2,0.6-0.4,1-0.6
	c0.4-0.2,0.8-0.3,1.2-0.4c0.4-0.1,0.8-0.2,1.2-0.2c0.2,0,0.5,0,0.6,0c0.2,0,0.3,0,0.4,0.1v1.7c-0.2-0.1-0.4-0.1-0.7-0.2
	s-0.6-0.1-1-0.1c-0.3,0-0.7,0-1,0.1s-0.6,0.1-0.9,0.2c-0.3,0.1-0.5,0.2-0.7,0.3c-0.2,0.1-0.4,0.2-0.6,0.3v8.9l3.3,0.2v0.7H371
	V1283.9z"/>
<path fill="#909094" d="M381.3,1283.9l1.8-0.2v-9.5l-1.5-0.5v-0.5l2.6-0.7l0.4,0.2v11.1l1.8,0.2v0.7h-5.1V1283.9z M383.4,1269.5
	c-0.1,0-0.3,0-0.4-0.1c-0.1,0-0.2-0.1-0.3-0.2c-0.1-0.1-0.2-0.2-0.2-0.3c-0.1-0.1-0.1-0.3-0.1-0.4c0-0.2,0-0.3,0.1-0.5
	c0.1-0.2,0.2-0.3,0.3-0.4c0.1-0.1,0.3-0.2,0.4-0.3c0.2-0.1,0.3-0.1,0.5-0.1c0.4,0,0.6,0.1,0.8,0.3c0.2,0.2,0.3,0.5,0.3,0.7
	c0,0.2,0,0.4-0.1,0.5s-0.2,0.3-0.3,0.4c-0.1,0.1-0.3,0.2-0.4,0.2C383.7,1269.4,383.6,1269.5,383.4,1269.5z"/>
<path fill="#909094" d="M388.3,1278.9c0-1,0.1-1.9,0.4-2.7c0.3-0.8,0.7-1.5,1.2-2c0.5-0.6,1.1-1,1.9-1.3s1.5-0.5,2.3-0.5
	c0.3,0,0.6,0,0.9,0c0.3,0,0.6,0,0.9,0.1c0.3,0,0.5,0.1,0.8,0.2s0.4,0.2,0.6,0.2v2.3h-0.8l-0.4-1.4c-0.3-0.2-0.6-0.3-0.9-0.4
	c-0.4-0.1-0.7-0.1-1.1-0.1c-0.6,0-1.1,0.1-1.6,0.3c-0.5,0.2-0.9,0.5-1.3,0.9c-0.4,0.4-0.7,0.9-0.9,1.5c-0.2,0.6-0.3,1.3-0.4,2.1
	c0,1,0.1,1.9,0.4,2.6c0.2,0.7,0.6,1.3,1,1.7c0.4,0.4,0.8,0.8,1.4,1c0.5,0.2,1,0.3,1.5,0.3c0.2,0,0.5,0,0.8-0.1
	c0.3,0,0.6-0.1,0.9-0.2s0.6-0.2,0.8-0.3s0.5-0.2,0.7-0.3l0.3,0.8c-0.2,0.2-0.5,0.4-0.8,0.5c-0.3,0.1-0.6,0.3-1,0.4s-0.7,0.2-1.1,0.2
	c-0.4,0.1-0.8,0.1-1.2,0.1c-0.8,0-1.5-0.2-2.2-0.5c-0.6-0.3-1.2-0.7-1.6-1.3c-0.4-0.5-0.8-1.2-1-1.9
	C388.4,1280.5,388.3,1279.7,388.3,1278.9z"/>
<path fill="#909094" d="M399.7,1283.9l1.7-0.2v-15.2l-1.9-0.3v-0.7l3.1-0.4l0.4,0.2v9l0,2.4l5.5-5.3l-1.6-0.1v-0.9h4.7v0.9l-1.7,0.2
	l-4,3.8l4.8,6.4l1.6,0.2v0.7h-4.9v-0.7l1.6-0.2l-4-5.6l-2,1.8l0.1,2.5v1.2l1.7,0.2v0.7h-5V1283.9z"/>
<path fill="#909094" d="M419.7,1280.8c0-0.6,0.1-1.1,0.3-1.5c0.2-0.4,0.5-0.8,0.8-1.2c0.3-0.3,0.7-0.6,1.2-0.9
	c0.4-0.3,0.9-0.5,1.3-0.7c-0.2-0.3-0.5-0.7-0.7-1s-0.5-0.7-0.7-1.1c-0.2-0.4-0.4-0.8-0.5-1.2c-0.1-0.4-0.2-0.8-0.2-1.3
	c0-0.7,0.1-1.2,0.3-1.7c0.2-0.5,0.5-0.9,0.8-1.3c0.4-0.4,0.8-0.6,1.3-0.8c0.5-0.2,1-0.3,1.6-0.3c0.6,0,1.1,0.1,1.6,0.3
	c0.5,0.2,0.8,0.4,1.1,0.7c0.3,0.3,0.5,0.7,0.7,1.1c0.1,0.4,0.2,0.9,0.2,1.3c0,0.6-0.1,1.1-0.3,1.6c-0.2,0.5-0.5,1-0.8,1.4
	c-0.3,0.4-0.7,0.8-1.2,1.2s-0.9,0.7-1.4,1c0.2,0.2,0.4,0.4,0.6,0.7c0.2,0.3,0.5,0.6,0.7,0.9s0.5,0.6,0.8,0.9
	c0.3,0.3,0.6,0.6,0.8,0.9s0.5,0.6,0.8,0.8c0.2,0.3,0.5,0.5,0.6,0.6l0.5,0.4c0.2-0.4,0.3-0.8,0.4-1.2c0.1-0.4,0.1-0.9,0.1-1.3
	c0-0.4,0-0.7-0.1-1c0-0.3-0.1-0.6-0.1-0.8c-0.1-0.2-0.1-0.4-0.2-0.5c-0.1-0.1-0.1-0.2-0.1-0.3h1.5c0.1,0.2,0.2,0.5,0.3,0.9
	c0.1,0.4,0.1,0.9,0.1,1.4c0,0.6-0.1,1.2-0.3,1.8c-0.2,0.6-0.4,1.2-0.8,1.7c0.3,0.2,0.5,0.4,0.7,0.5c0.2,0.1,0.4,0.3,0.7,0.4
	s0.4,0.2,0.6,0.2c0.2,0,0.4,0.1,0.7,0.1v0.7c-0.2,0.1-0.4,0.1-0.7,0.1c-0.2,0-0.5,0-0.8,0c-0.4,0-0.7-0.1-1.1-0.3
	c-0.4-0.2-0.8-0.4-1.2-0.7c-0.3,0.2-0.6,0.5-1,0.6s-0.7,0.3-1.1,0.4c-0.4,0.1-0.8,0.2-1.2,0.3c-0.4,0.1-0.8,0.1-1.1,0.1
	c-0.4,0-0.8,0-1.2-0.1c-0.4,0-0.9-0.1-1.3-0.3s-0.9-0.3-1.3-0.5s-0.8-0.5-1.1-0.8c-0.3-0.3-0.6-0.7-0.8-1.1
	C419.8,1281.9,419.7,1281.4,419.7,1280.8z M421.2,1280.7c0,0.5,0.1,1,0.4,1.4s0.6,0.8,1,1c0.4,0.3,0.9,0.5,1.4,0.6s1.1,0.2,1.7,0.2
	c0.3,0,0.6,0,1,0c0.3,0,0.6-0.1,1-0.2s0.6-0.2,0.9-0.3c0.3-0.1,0.5-0.3,0.7-0.5c0,0-0.1-0.1-0.1-0.1s-0.1-0.1-0.1-0.1
	c-0.2-0.2-0.5-0.5-0.8-0.7s-0.6-0.6-0.9-0.9c-0.3-0.3-0.6-0.7-1-1c-0.3-0.4-0.6-0.7-0.9-1s-0.6-0.7-0.8-1c-0.3-0.3-0.5-0.6-0.7-0.9
	c-0.5,0.2-0.8,0.5-1.2,0.7c-0.3,0.2-0.6,0.5-0.8,0.8s-0.4,0.6-0.5,0.9C421.3,1279.9,421.2,1280.3,421.2,1280.7z M424.7,1275.9
	c0.9-0.4,1.6-1,2.1-1.8s0.7-1.6,0.7-2.5c0-0.3,0-0.6-0.1-0.9c-0.1-0.3-0.2-0.6-0.4-0.9s-0.4-0.5-0.8-0.7c-0.3-0.2-0.7-0.3-1.2-0.3
	c-0.3,0-0.6,0-0.8,0.2s-0.5,0.3-0.8,0.5c-0.2,0.2-0.4,0.5-0.6,0.8c-0.1,0.3-0.2,0.8-0.2,1.2c0,0.5,0.1,1,0.2,1.4
	c0.1,0.4,0.3,0.8,0.5,1.2s0.4,0.7,0.7,1C424.3,1275.4,424.5,1275.7,424.7,1275.9z"/>
<path fill="#909094" d="M440.2,1283.9l1.6-0.3l5.8-15.8h1.3l5.6,15.8l1.8,0.3v0.7H451v-0.7l1.8-0.3l-1.4-3.9h-6.9l-1.4,3.9l1.9,0.3
	v0.7h-4.8V1283.9z M451.1,1278.8l-2.3-6.6l-0.8-2.5l-3.2,9.1H451.1z"/>
<path fill="#909094" d="M457.9,1281.7h0.8l0.3,1.5c0.4,0.3,0.8,0.5,1.2,0.7c0.4,0.1,0.9,0.2,1.4,0.2c0.4,0,0.8,0,1.2-0.1
	c0.4-0.1,0.7-0.2,1-0.4s0.5-0.4,0.7-0.7c0.2-0.3,0.2-0.6,0.2-1c0-0.4-0.1-0.7-0.3-1c-0.2-0.3-0.5-0.5-0.8-0.7
	c-0.3-0.2-0.7-0.4-1.1-0.6c-0.4-0.2-0.8-0.3-1.2-0.5c-0.4-0.2-0.8-0.4-1.3-0.6c-0.4-0.2-0.8-0.5-1.1-0.8c-0.3-0.3-0.6-0.6-0.7-1
	c-0.2-0.4-0.3-0.8-0.3-1.3c0-0.5,0.1-1,0.4-1.4c0.3-0.4,0.6-0.7,1-1s0.8-0.5,1.3-0.6s1-0.2,1.5-0.2c0.4,0,0.7,0,1,0.1
	c0.3,0,0.7,0.1,1,0.2c0.3,0.1,0.6,0.2,0.8,0.3c0.2,0.1,0.4,0.2,0.6,0.3v2.2h-0.7l-0.4-1.3c-0.2-0.2-0.5-0.4-0.9-0.5
	c-0.4-0.1-0.8-0.2-1.3-0.2c-0.4,0-0.8,0-1.2,0.1c-0.3,0.1-0.6,0.2-0.9,0.4c-0.2,0.2-0.4,0.4-0.5,0.7c-0.1,0.3-0.2,0.5-0.2,0.8
	c0,0.4,0.1,0.7,0.2,0.9c0.2,0.3,0.4,0.5,0.7,0.7c0.3,0.2,0.6,0.4,1,0.6c0.4,0.2,0.8,0.4,1.2,0.5c0.3,0.1,0.5,0.2,0.8,0.4
	c0.3,0.1,0.6,0.3,0.8,0.4c0.3,0.1,0.5,0.3,0.8,0.5c0.2,0.2,0.5,0.4,0.6,0.6c0.2,0.2,0.3,0.5,0.4,0.8c0.1,0.3,0.2,0.6,0.2,1
	c0,0.6-0.1,1.1-0.3,1.5c-0.2,0.4-0.5,0.8-1,1.1c-0.4,0.3-0.9,0.5-1.5,0.7c-0.6,0.1-1.2,0.2-1.8,0.2s-1.3-0.1-1.9-0.2
	c-0.6-0.2-1.2-0.4-1.8-0.7V1281.7z"/>
<path fill="#909094" d="M469.2,1281.7h0.8l0.3,1.5c0.4,0.3,0.8,0.5,1.2,0.7c0.4,0.1,0.9,0.2,1.4,0.2c0.4,0,0.8,0,1.2-0.1
	c0.4-0.1,0.7-0.2,1-0.4s0.5-0.4,0.7-0.7c0.2-0.3,0.2-0.6,0.2-1c0-0.4-0.1-0.7-0.3-1c-0.2-0.3-0.5-0.5-0.8-0.7
	c-0.3-0.2-0.7-0.4-1.1-0.6c-0.4-0.2-0.8-0.3-1.2-0.5c-0.4-0.2-0.8-0.4-1.3-0.6c-0.4-0.2-0.8-0.5-1.1-0.8c-0.3-0.3-0.6-0.6-0.7-1
	c-0.2-0.4-0.3-0.8-0.3-1.3c0-0.5,0.1-1,0.4-1.4c0.3-0.4,0.6-0.7,1-1s0.8-0.5,1.3-0.6s1-0.2,1.5-0.2c0.4,0,0.7,0,1,0.1
	c0.3,0,0.7,0.1,1,0.2c0.3,0.1,0.6,0.2,0.8,0.3c0.2,0.1,0.4,0.2,0.6,0.3v2.2h-0.7l-0.4-1.3c-0.2-0.2-0.5-0.4-0.9-0.5
	c-0.4-0.1-0.8-0.2-1.3-0.2c-0.4,0-0.8,0-1.2,0.1c-0.3,0.1-0.6,0.2-0.9,0.4c-0.2,0.2-0.4,0.4-0.5,0.7c-0.1,0.3-0.2,0.5-0.2,0.8
	c0,0.4,0.1,0.7,0.2,0.9c0.2,0.3,0.4,0.5,0.7,0.7c0.3,0.2,0.6,0.4,1,0.6c0.4,0.2,0.8,0.4,1.2,0.5c0.3,0.1,0.5,0.2,0.8,0.4
	c0.3,0.1,0.6,0.3,0.8,0.4c0.3,0.1,0.5,0.3,0.8,0.5c0.2,0.2,0.5,0.4,0.6,0.6c0.2,0.2,0.3,0.5,0.4,0.8c0.1,0.3,0.2,0.6,0.2,1
	c0,0.6-0.1,1.1-0.3,1.5c-0.2,0.4-0.5,0.8-1,1.1c-0.4,0.3-0.9,0.5-1.5,0.7c-0.6,0.1-1.2,0.2-1.8,0.2s-1.3-0.1-1.9-0.2
	c-0.6-0.2-1.2-0.4-1.8-0.7V1281.7z"/>
<path fill="#909094" d="M479.9,1278.4c0-0.9,0.2-1.8,0.5-2.6c0.3-0.8,0.7-1.4,1.2-1.9c0.5-0.5,1.1-0.9,1.8-1.2
	c0.7-0.3,1.4-0.4,2.2-0.4c0.6,0,1.2,0.1,1.7,0.2c0.5,0.2,1,0.4,1.4,0.6s0.7,0.6,1,1c0.3,0.4,0.5,0.8,0.7,1.3c0.2,0.5,0.3,1,0.4,1.5
	s0.1,1,0.1,1.6c0,0.9-0.2,1.8-0.4,2.6c-0.3,0.8-0.7,1.5-1.2,2c-0.5,0.6-1.1,1-1.8,1.3c-0.7,0.3-1.4,0.5-2.2,0.5
	c-0.7,0-1.2-0.1-1.8-0.2s-1-0.4-1.4-0.7c-0.4-0.3-0.8-0.6-1-1.1s-0.5-0.9-0.7-1.3c-0.2-0.5-0.3-1-0.4-1.5
	C479.9,1279.5,479.8,1279,479.9,1278.4z M485.3,1284c0.6,0,1.2-0.1,1.6-0.3c0.5-0.2,0.9-0.6,1.2-1c0.3-0.5,0.6-1,0.7-1.7
	c0.2-0.7,0.3-1.5,0.3-2.4c0-0.7-0.1-1.4-0.2-2.1c-0.1-0.6-0.4-1.2-0.7-1.7c-0.3-0.5-0.7-0.9-1.2-1.2c-0.5-0.3-1.1-0.4-1.7-0.5
	c-0.6,0-1.2,0.1-1.7,0.3s-0.9,0.6-1.2,1c-0.3,0.4-0.6,1-0.8,1.6c-0.2,0.6-0.3,1.4-0.3,2.2c0,0.8,0.1,1.5,0.2,2.1s0.4,1.3,0.7,1.8
	c0.3,0.5,0.7,0.9,1.2,1.2C484.1,1283.8,484.7,1284,485.3,1284z"/>
<path fill="#909094" d="M493.1,1278.9c0-1,0.1-1.9,0.4-2.7c0.3-0.8,0.7-1.5,1.2-2c0.5-0.6,1.1-1,1.9-1.3s1.5-0.5,2.3-0.5
	c0.3,0,0.6,0,0.9,0c0.3,0,0.6,0,0.9,0.1c0.3,0,0.5,0.1,0.8,0.2s0.4,0.2,0.6,0.2v2.3h-0.8l-0.4-1.4c-0.3-0.2-0.6-0.3-0.9-0.4
	c-0.4-0.1-0.7-0.1-1.1-0.1c-0.6,0-1.1,0.1-1.6,0.3c-0.5,0.2-0.9,0.5-1.3,0.9c-0.4,0.4-0.7,0.9-0.9,1.5c-0.2,0.6-0.3,1.3-0.4,2.1
	c0,1,0.1,1.9,0.4,2.6c0.2,0.7,0.6,1.3,1,1.7c0.4,0.4,0.8,0.8,1.4,1c0.5,0.2,1,0.3,1.5,0.3c0.2,0,0.5,0,0.8-0.1
	c0.3,0,0.6-0.1,0.9-0.2s0.6-0.2,0.8-0.3s0.5-0.2,0.7-0.3l0.3,0.8c-0.2,0.2-0.5,0.4-0.8,0.5c-0.3,0.1-0.6,0.3-1,0.4s-0.7,0.2-1.1,0.2
	c-0.4,0.1-0.8,0.1-1.2,0.1c-0.8,0-1.5-0.2-2.2-0.5c-0.6-0.3-1.2-0.7-1.6-1.3c-0.4-0.5-0.8-1.2-1-1.9
	C493.2,1280.5,493.1,1279.7,493.1,1278.9z"/>
<path fill="#909094" d="M504.8,1283.9l1.8-0.2v-9.5l-1.5-0.5v-0.5l2.6-0.7l0.4,0.2v11.1l1.8,0.2v0.7h-5.1V1283.9z M506.9,1269.5
	c-0.1,0-0.3,0-0.4-0.1c-0.1,0-0.2-0.1-0.3-0.2c-0.1-0.1-0.2-0.2-0.2-0.3c-0.1-0.1-0.1-0.3-0.1-0.4c0-0.2,0-0.3,0.1-0.5
	c0.1-0.2,0.2-0.3,0.3-0.4c0.1-0.1,0.3-0.2,0.4-0.3c0.2-0.1,0.3-0.1,0.5-0.1c0.4,0,0.6,0.1,0.8,0.3c0.2,0.2,0.3,0.5,0.3,0.7
	c0,0.2,0,0.4-0.1,0.5s-0.2,0.3-0.3,0.4c-0.1,0.1-0.3,0.2-0.4,0.2C507.2,1269.4,507.1,1269.5,506.9,1269.5z"/>
<path fill="#909094" d="M511.8,1281.3c0-0.5,0.2-0.9,0.5-1.3s0.6-0.7,1-1c0.4-0.3,0.8-0.5,1.4-0.7c0.5-0.2,1-0.3,1.6-0.5
	c0.5-0.1,1.1-0.2,1.6-0.2c0.5,0,1-0.1,1.5-0.1v-0.9c0-0.6-0.1-1.1-0.2-1.5c-0.1-0.4-0.4-0.7-0.6-0.9s-0.6-0.4-1-0.5
	c-0.4-0.1-0.8-0.1-1.3-0.1c-0.3,0-0.6,0-0.9,0.1c-0.3,0.1-0.6,0.1-0.9,0.2c-0.3,0.1-0.6,0.2-0.9,0.3s-0.5,0.2-0.7,0.4l-0.3-0.8
	c0.3-0.2,0.6-0.4,1-0.6s0.8-0.3,1.2-0.4c0.4-0.1,0.8-0.2,1.2-0.2c0.4-0.1,0.7-0.1,1-0.1c0.6,0,1.1,0.1,1.6,0.2s1,0.3,1.3,0.6
	c0.4,0.3,0.7,0.7,0.9,1.2s0.3,1.2,0.3,1.9l0,7.5h1.4v0.6c-0.2,0.1-0.5,0.2-0.8,0.3c-0.3,0.1-0.7,0.1-1.1,0.1c-0.1,0-0.2,0-0.4,0
	c-0.1,0-0.2-0.1-0.3-0.1c-0.1-0.1-0.2-0.2-0.2-0.3c-0.1-0.1-0.1-0.3-0.1-0.6v-0.4c-0.2,0.2-0.4,0.4-0.7,0.6
	c-0.2,0.2-0.5,0.3-0.8,0.5c-0.3,0.1-0.7,0.2-1.1,0.3c-0.4,0.1-0.8,0.1-1.3,0.1c-0.5,0-0.9-0.1-1.4-0.2c-0.4-0.2-0.8-0.4-1.2-0.7
	s-0.6-0.7-0.8-1.1C511.8,1282.4,511.7,1281.9,511.8,1281.3z M513.4,1281.3c0,0.4,0.1,0.8,0.2,1.1c0.1,0.3,0.3,0.6,0.6,0.8
	c0.3,0.2,0.5,0.4,0.9,0.5c0.3,0.1,0.7,0.1,1.2,0.1c0.4,0,0.7,0,1.1-0.1s0.6-0.2,0.9-0.3s0.5-0.2,0.6-0.4s0.3-0.2,0.4-0.3
	c0-0.3,0-0.6,0-0.9c0-0.3,0-0.7,0-1.1c0-0.4,0-0.8,0-1.2c0-0.4,0-0.8,0-1.2c-0.4,0-0.8,0-1.2,0.1s-0.9,0.1-1.3,0.2
	c-0.4,0.1-0.8,0.2-1.2,0.4c-0.4,0.1-0.7,0.3-1,0.5c-0.3,0.2-0.5,0.5-0.7,0.8C513.5,1280.6,513.4,1280.9,513.4,1281.3z"/>
<path fill="#909094" d="M525.8,1273.7h-1.7v-0.6c0.3-0.1,0.6-0.1,0.8-0.1c0.2,0,0.4-0.1,0.5-0.1s0.3-0.1,0.3-0.2
	c0.1-0.1,0.2-0.2,0.3-0.3c0-0.1,0.1-0.3,0.2-0.5c0.1-0.2,0.1-0.5,0.2-0.7c0.1-0.3,0.1-0.5,0.1-0.8c0-0.2,0.1-0.4,0.1-0.6h0.8v2.9h4
	v1h-4v6.5c0,0.7,0,1.3,0,1.8c0,0.5,0.1,0.8,0.2,1.1c0.1,0.3,0.2,0.5,0.4,0.6c0.2,0.1,0.4,0.2,0.8,0.2c0.3,0,0.5,0,0.8-0.1
	s0.5-0.1,0.7-0.2s0.4-0.1,0.6-0.2c0.2-0.1,0.3-0.2,0.4-0.2l0.3,0.8c-0.2,0.2-0.4,0.3-0.6,0.5c-0.3,0.1-0.6,0.2-0.9,0.3
	c-0.3,0.1-0.6,0.2-0.9,0.2c-0.3,0-0.6,0.1-0.8,0.1c-0.4,0-0.7-0.1-1-0.2c-0.3-0.1-0.5-0.3-0.7-0.5c-0.2-0.2-0.4-0.5-0.5-0.9
	s-0.2-0.8-0.2-1.4V1273.7z"/>
<path fill="#909094" d="M533.3,1278.7c0-0.9,0.1-1.8,0.4-2.5c0.3-0.8,0.7-1.4,1.2-2c0.5-0.6,1.1-1,1.9-1.3s1.5-0.5,2.4-0.5
	c0.6,0,1.2,0.1,1.7,0.3c0.5,0.2,0.9,0.5,1.3,0.9c0.4,0.4,0.6,0.9,0.8,1.4s0.3,1.2,0.3,1.9c0,0.4,0,0.7,0,1c0,0.3-0.1,0.5-0.1,0.8
	h-8.3v0.1c0,0.9,0.1,1.7,0.3,2.3c0.2,0.7,0.5,1.2,0.9,1.6c0.4,0.4,0.9,0.7,1.4,0.9c0.5,0.2,1.1,0.3,1.7,0.3c0.3,0,0.7,0,1-0.1
	c0.4,0,0.7-0.1,1-0.2s0.6-0.2,0.9-0.3c0.3-0.1,0.5-0.2,0.6-0.3l0.3,0.7c-0.2,0.2-0.5,0.4-0.8,0.5c-0.3,0.2-0.7,0.3-1.1,0.4
	c-0.4,0.1-0.8,0.2-1.2,0.2c-0.4,0.1-0.8,0.1-1.3,0.1c-0.9,0-1.6-0.1-2.3-0.4c-0.7-0.3-1.2-0.7-1.7-1.3c-0.5-0.5-0.8-1.2-1-2
	C533.4,1280.5,533.3,1279.6,533.3,1278.7z M541.6,1277.5c0-0.5,0-0.9,0-1.3c0-0.4-0.1-0.8-0.2-1.1c-0.1-0.4-0.3-0.7-0.5-0.9
	c-0.2-0.3-0.5-0.5-0.8-0.7c-0.4-0.2-0.9-0.3-1.5-0.3c-0.5,0-1,0.1-1.4,0.3c-0.4,0.2-0.8,0.5-1.2,0.8c-0.3,0.4-0.6,0.8-0.9,1.4
	s-0.4,1.2-0.5,1.9H541.6z"/>
<path fill="#909094" d="M546.2,1281.7h0.8l0.3,1.5c0.4,0.3,0.8,0.5,1.2,0.7c0.4,0.1,0.9,0.2,1.4,0.2c0.4,0,0.8,0,1.2-0.1
	c0.4-0.1,0.7-0.2,1-0.4s0.5-0.4,0.7-0.7c0.2-0.3,0.2-0.6,0.2-1c0-0.4-0.1-0.7-0.3-1c-0.2-0.3-0.5-0.5-0.8-0.7
	c-0.3-0.2-0.7-0.4-1.1-0.6c-0.4-0.2-0.8-0.3-1.2-0.5c-0.4-0.2-0.8-0.4-1.3-0.6c-0.4-0.2-0.8-0.5-1.1-0.8c-0.3-0.3-0.6-0.6-0.7-1
	c-0.2-0.4-0.3-0.8-0.3-1.3c0-0.5,0.1-1,0.4-1.4c0.3-0.4,0.6-0.7,1-1s0.8-0.5,1.3-0.6s1-0.2,1.5-0.2c0.4,0,0.7,0,1,0.1
	c0.3,0,0.7,0.1,1,0.2c0.3,0.1,0.6,0.2,0.8,0.3c0.2,0.1,0.4,0.2,0.6,0.3v2.2h-0.7l-0.4-1.3c-0.2-0.2-0.5-0.4-0.9-0.5
	c-0.4-0.1-0.8-0.2-1.3-0.2c-0.4,0-0.8,0-1.2,0.1c-0.3,0.1-0.6,0.2-0.9,0.4c-0.2,0.2-0.4,0.4-0.5,0.7c-0.1,0.3-0.2,0.5-0.2,0.8
	c0,0.4,0.1,0.7,0.2,0.9c0.2,0.3,0.4,0.5,0.7,0.7c0.3,0.2,0.6,0.4,1,0.6c0.4,0.2,0.8,0.4,1.2,0.5c0.3,0.1,0.5,0.2,0.8,0.4
	c0.3,0.1,0.6,0.3,0.8,0.4c0.3,0.1,0.5,0.3,0.8,0.5c0.2,0.2,0.5,0.4,0.6,0.6c0.2,0.2,0.3,0.5,0.4,0.8c0.1,0.3,0.2,0.6,0.2,1
	c0,0.6-0.1,1.1-0.3,1.5c-0.2,0.4-0.5,0.8-1,1.1c-0.4,0.3-0.9,0.5-1.5,0.7c-0.6,0.1-1.2,0.2-1.8,0.2s-1.3-0.1-1.9-0.2
	c-0.6-0.2-1.2-0.4-1.8-0.7V1281.7z"/>
<path fill="#909094" d="M558.2,1283.7c0-0.2,0.1-0.3,0.2-0.4c0.1-0.1,0.2-0.2,0.3-0.3c0.1-0.1,0.2-0.1,0.4-0.2s0.3,0,0.4,0
	c0.2,0,0.3,0.1,0.4,0.1c0.1,0.1,0.2,0.1,0.2,0.2c0.1,0.1,0.1,0.2,0.1,0.3c0,0.1,0,0.2,0,0.4c0,0.2-0.1,0.3-0.2,0.4s-0.2,0.2-0.3,0.3
	c-0.1,0.1-0.2,0.1-0.4,0.2c-0.1,0-0.3,0-0.4,0c-0.2,0-0.4-0.1-0.6-0.3C558.2,1284.2,558.1,1284,558.2,1283.7z"/>
<path fill="#909094" d="M568.7,1284.3l0.9-0.1v-6.7l-0.9-0.1v-0.4h1.2c0.2,0,0.4,0,0.5,0s0.3,0,0.5,0c0.1,0,0.3,0,0.4,0s0.3,0,0.4,0
	c0.6,0,1.2,0.1,1.6,0.2c0.5,0.2,0.8,0.4,1.2,0.7c0.3,0.3,0.5,0.7,0.7,1.2c0.2,0.5,0.2,1,0.2,1.5c0,0.6-0.1,1.2-0.3,1.7
	c-0.2,0.5-0.5,0.9-0.8,1.3c-0.4,0.3-0.8,0.6-1.2,0.8c-0.5,0.2-1,0.3-1.6,0.3c-0.1,0-0.2,0-0.4,0c-0.1,0-0.3,0-0.4,0
	c-0.1,0-0.3,0-0.4,0c-0.1,0-0.3,0-0.4,0c-0.1,0-0.2,0-0.3,0s-0.2,0-0.3,0c-0.1,0-0.2,0-0.3,0s-0.2,0-0.3,0V1284.3z M570.3,1284.2
	c0.2,0,0.4,0.1,0.7,0.1c0.2,0,0.4,0,0.7,0c0.4,0,0.8-0.1,1.2-0.2c0.4-0.1,0.7-0.3,1-0.6c0.3-0.3,0.5-0.6,0.7-1.1s0.2-0.9,0.2-1.5
	c0-0.6-0.1-1.1-0.2-1.5c-0.1-0.4-0.3-0.8-0.6-1.1c-0.3-0.3-0.6-0.5-1-0.6c-0.4-0.1-0.8-0.2-1.3-0.2c-0.3,0-0.5,0-0.7,0
	c-0.2,0-0.4,0-0.6,0.1V1284.2z"/>
<path fill="#909094" d="M576.4,1284.3l0.9-0.1v-6.7l-0.9-0.1v-0.4h1.2c0.2,0,0.4,0,0.5,0s0.3,0,0.5,0c0.1,0,0.3,0,0.4,0s0.3,0,0.4,0
	c0.6,0,1.2,0.1,1.6,0.2c0.5,0.2,0.8,0.4,1.2,0.7c0.3,0.3,0.5,0.7,0.7,1.2c0.2,0.5,0.2,1,0.2,1.5c0,0.6-0.1,1.2-0.3,1.7
	c-0.2,0.5-0.5,0.9-0.8,1.3c-0.4,0.3-0.8,0.6-1.2,0.8c-0.5,0.2-1,0.3-1.6,0.3c-0.1,0-0.2,0-0.4,0c-0.1,0-0.3,0-0.4,0
	c-0.1,0-0.3,0-0.4,0c-0.1,0-0.3,0-0.4,0c-0.1,0-0.2,0-0.3,0s-0.2,0-0.3,0c-0.1,0-0.2,0-0.3,0s-0.2,0-0.3,0V1284.3z M578,1284.2
	c0.2,0,0.4,0.1,0.7,0.1c0.2,0,0.4,0,0.7,0c0.4,0,0.8-0.1,1.2-0.2c0.4-0.1,0.7-0.3,1-0.6c0.3-0.3,0.5-0.6,0.7-1.1s0.2-0.9,0.2-1.5
	c0-0.6-0.1-1.1-0.2-1.5c-0.1-0.4-0.3-0.8-0.6-1.1c-0.3-0.3-0.6-0.5-1-0.6c-0.4-0.1-0.8-0.2-1.3-0.2c-0.3,0-0.5,0-0.7,0
	c-0.2,0-0.4,0-0.6,0.1V1284.2z"/>
<path fill="#909094" d="M584.5,1282.9h0.4l0.2,1c0.1,0.1,0.2,0.2,0.4,0.2c0.1,0.1,0.3,0.1,0.4,0.2c0.2,0,0.3,0.1,0.5,0.1
	c0.2,0,0.3,0,0.5,0c0.2,0,0.4,0,0.6-0.1s0.4-0.1,0.6-0.2c0.2-0.1,0.3-0.3,0.4-0.4s0.2-0.4,0.2-0.7c0-0.2-0.1-0.4-0.2-0.6
	c-0.1-0.2-0.3-0.3-0.4-0.5c-0.2-0.1-0.4-0.3-0.6-0.4c-0.2-0.1-0.5-0.2-0.7-0.4c-0.3-0.1-0.5-0.3-0.8-0.4c-0.3-0.1-0.5-0.3-0.7-0.5
	c-0.2-0.2-0.4-0.4-0.5-0.6c-0.1-0.2-0.2-0.5-0.2-0.7c0-0.2,0-0.4,0.1-0.6c0.1-0.2,0.2-0.3,0.3-0.5s0.3-0.3,0.4-0.4
	c0.2-0.1,0.3-0.2,0.5-0.2c0.2-0.1,0.4-0.1,0.5-0.1c0.2,0,0.4,0,0.5,0c0.3,0,0.5,0,0.7,0c0.2,0,0.4,0.1,0.5,0.1
	c0.2,0,0.3,0.1,0.4,0.1s0.2,0.1,0.3,0.1v1.3h-0.3l-0.3-1c-0.1-0.1-0.3-0.2-0.6-0.3s-0.5-0.1-0.7-0.1c-0.2,0-0.4,0-0.6,0.1
	c-0.2,0-0.4,0.1-0.5,0.2c-0.2,0.1-0.3,0.3-0.4,0.4s-0.2,0.4-0.2,0.7c0,0.2,0.1,0.4,0.2,0.6c0.1,0.2,0.2,0.3,0.4,0.4
	c0.2,0.1,0.4,0.3,0.6,0.4c0.2,0.1,0.4,0.2,0.7,0.3c0.2,0.1,0.4,0.2,0.5,0.3s0.4,0.2,0.5,0.3s0.3,0.2,0.5,0.3s0.3,0.2,0.4,0.4
	c0.1,0.1,0.2,0.3,0.2,0.4c0.1,0.2,0.1,0.3,0.1,0.5c0,0.4-0.1,0.7-0.2,0.9s-0.3,0.5-0.5,0.6c-0.2,0.2-0.5,0.3-0.8,0.4s-0.6,0.1-1,0.1
	c-0.2,0-0.5,0-0.7,0c-0.2,0-0.5-0.1-0.7-0.1c-0.2,0-0.4-0.1-0.5-0.1s-0.3-0.1-0.3-0.1V1282.9z"/>
<path fill="#909094" d="M590.8,1284.2c0-0.1,0-0.1,0.1-0.2c0-0.1,0.1-0.1,0.1-0.1c0.1,0,0.1-0.1,0.2-0.1s0.1,0,0.2,0
	c0.1,0,0.1,0,0.2,0.1c0,0,0.1,0.1,0.1,0.1c0,0,0,0.1,0.1,0.1c0,0.1,0,0.1,0,0.2c0,0.1,0,0.1-0.1,0.2s-0.1,0.1-0.1,0.1
	c-0.1,0-0.1,0.1-0.2,0.1c-0.1,0-0.1,0-0.2,0c-0.1,0-0.2-0.1-0.3-0.2C590.8,1284.5,590.8,1284.4,590.8,1284.2z"/>
<path fill="#909094" d="M596.1,1284.3l1-0.1v-6.7l-0.9-0.1v-0.4h1.2c0.1,0,0.2,0,0.3,0c0.1,0,0.3,0,0.4,0c0.2,0,0.3,0,0.5,0
	c0.2,0,0.3,0,0.5,0c0.4,0,0.7,0,1,0.1c0.3,0.1,0.6,0.2,0.8,0.4c0.2,0.2,0.4,0.4,0.5,0.7c0.1,0.3,0.2,0.7,0.2,1.1
	c0,0.4-0.1,0.8-0.2,1.1s-0.4,0.6-0.6,0.8c-0.3,0.2-0.6,0.4-0.9,0.5c-0.3,0.1-0.7,0.2-1,0.2c-0.3,0-0.5,0-0.7,0c-0.2,0-0.3,0-0.4,0
	v2.4l1.3,0.1v0.3h-3.1V1284.3z M597.8,1281.3c0.2,0,0.4,0,0.6,0.1c0.2,0,0.4,0,0.5,0c0.3,0,0.6,0,0.8-0.1s0.5-0.2,0.7-0.4
	c0.2-0.2,0.3-0.4,0.5-0.6s0.2-0.6,0.2-1c0-0.6-0.2-1.1-0.5-1.4c-0.3-0.3-0.9-0.5-1.6-0.4c-0.1,0-0.2,0-0.3,0s-0.2,0-0.3,0
	s-0.2,0-0.3,0s-0.2,0-0.2,0V1281.3z"/>
<path fill="#909094" d="M602.5,1284.3l0.9-0.1v-6.7l-0.9-0.1v-0.4h2.5v0.4l-1,0.1l0,6.7l3-0.1l0.5-1.2l0.3,0.2l-0.3,1.6h-5.1V1284.3
	z"/>
<path fill="#909094" d="M608.6,1284.3l0.9-0.1v-6.7l-0.9-0.1v-0.4h2.5v0.4l-1,0.1l0,6.7l3-0.1l0.5-1.2l0.3,0.2l-0.3,1.6h-5.1V1284.3
	z"/>
<path fill="#909094" d="M614.6,1281.1c0-0.4,0-0.8,0.1-1.2c0.1-0.4,0.2-0.7,0.4-1s0.4-0.6,0.6-0.8c0.2-0.2,0.5-0.4,0.8-0.6
	c0.3-0.2,0.6-0.3,0.9-0.4c0.3-0.1,0.7-0.1,1-0.1c0.2,0,0.5,0,0.7,0c0.2,0,0.4,0.1,0.6,0.1c0.2,0,0.3,0.1,0.5,0.1s0.3,0.1,0.4,0.1
	l-0.1,1.3h-0.4l-0.2-0.9c-0.2-0.1-0.4-0.2-0.7-0.3c-0.3-0.1-0.6-0.1-0.9-0.1c-0.3,0-0.5,0-0.7,0.1c-0.2,0.1-0.5,0.2-0.7,0.3
	c-0.2,0.1-0.4,0.3-0.6,0.5c-0.2,0.2-0.3,0.4-0.5,0.7c-0.1,0.3-0.2,0.5-0.3,0.8c-0.1,0.3-0.1,0.6-0.1,1c0,0.3,0,0.6,0.1,0.9
	c0.1,0.3,0.1,0.6,0.3,0.8c0.1,0.3,0.3,0.5,0.4,0.7c0.2,0.2,0.4,0.4,0.6,0.6c0.2,0.2,0.5,0.3,0.7,0.4c0.3,0.1,0.6,0.1,0.9,0.1
	c0.4,0,0.7-0.1,1-0.2c0.3-0.1,0.5-0.2,0.7-0.4l0.2-0.8c0,0,0.1,0,0.2,0c0.1,0,0.1,0,0.2,0v1.3c-0.1,0-0.2,0-0.4,0.1
	c-0.1,0-0.3,0.1-0.5,0.2c-0.2,0.1-0.4,0.1-0.7,0.1c-0.3,0-0.6,0.1-0.9,0.1c-0.5,0-1-0.1-1.4-0.3s-0.8-0.4-1.1-0.8
	c-0.3-0.3-0.6-0.7-0.7-1.2C614.7,1282.1,614.6,1281.6,614.6,1281.1z"/>
</svg>
