<?xml version="1.0" encoding="utf-8"?>
<!-- Generator: Adobe Illustrator 16.0.0, SVG Export Plug-In . SVG Version: 6.00 Build 0)  -->
<!DOCTYPE svg PUBLIC "-//W3C//DTD SVG 1.1//EN" "http://www.w3.org/Graphics/SVG/1.1/DTD/svg11.dtd">
<svg version="1.1" id="Layer_1" xmlns="http://www.w3.org/2000/svg" xmlns:xlink="http://www.w3.org/1999/xlink" x="0px" y="0px"
	 width="50px" height="370px" viewBox="0 0 50 370" enable-background="new 0 0 50 370" xml:space="preserve">
<path fill-rule="evenodd" clip-rule="evenodd" fill="#FFFFFF" d="M20,322.801c-7.069,0-12.8-5.731-12.8-12.8
	c0-7.069,5.73-12.801,12.8-12.801c7.069,0,12.801,5.731,12.801,12.801C32.801,317.069,27.068,322.801,20,322.801z M20,299.601
	c-5.744,0-10.4,4.657-10.4,10.4c0,5.744,4.656,10.4,10.4,10.4s10.401-4.656,10.401-10.4C30.4,304.258,25.744,299.601,20,299.601z
	 M23.807,311.036l-6.364,3.989l-0.006-0.008c-0.045,0.028-0.092,0.054-0.141,0.076c-0.002,0.001-0.004,0.002-0.006,0.003
	c-0.049,0.021-0.098,0.039-0.149,0.055c-0.003,0.001-0.007,0.002-0.011,0.004c-0.021,0.006-0.045,0.012-0.066,0.016
	c-0.004,0.002-0.008,0.003-0.012,0.004c-0.025,0.005-0.051,0.01-0.076,0.014c-0.005,0-0.009,0-0.014,0
	c-0.021,0.005-0.043,0.006-0.064,0.008c-0.007,0.001-0.014,0.002-0.02,0.002c-0.026,0.002-0.053,0.003-0.079,0.003
	c-0.663,0-1.2-0.538-1.2-1.2l0,0l0,0v-8l0,0c0-0.662,0.537-1.2,1.2-1.2c0.251,0,0.484,0.078,0.677,0.209l6.32,3.95
	c0.36,0.207,0.604,0.596,0.604,1.041C24.4,310.442,24.162,310.827,23.807,311.036z"/>
<path fill-rule="evenodd" clip-rule="evenodd" fill="#FFFFFF" d="M32.052,277.911l-11.577,4.79
	c-0.146,0.062-0.306,0.098-0.475,0.098s-0.329-0.035-0.475-0.098l-11.577-4.79c-0.438-0.178-0.748-0.608-0.748-1.112v-18.399
	c0-0.663,0.537-1.2,1.2-1.2c0.162,0,0.316,0.032,0.459,0.092l0,0h0.002c0.003,0.002,0.006,0.003,0.01,0.005L20,261.9l11.129-4.604
	c0.004-0.002,0.007-0.003,0.01-0.005h0.002l0,0c0.143-0.06,0.297-0.092,0.459-0.092c0.663,0,1.2,0.537,1.2,1.2v18.399
	C32.8,277.303,32.49,277.733,32.052,277.911z M18.801,264.001L9.6,260.194v15.804l9.201,3.807V264.001z M30.4,260.194l-9.2,3.807
	v15.804l9.2-3.807V260.194z M23.104,265.707l4.4-2l0,0c0.15-0.068,0.318-0.107,0.496-0.107c0.662,0,1.2,0.537,1.2,1.2
	c0,0.484-0.288,0.903-0.704,1.092l0,0l-4.399,2.001l0,0c-0.151,0.068-0.319,0.106-0.497,0.106c-0.662,0-1.199-0.537-1.199-1.199
	C22.4,266.314,22.688,265.896,23.104,265.707z M23.104,270.107L23.104,270.107l4.4-2l0,0c0.15-0.069,0.318-0.108,0.496-0.108
	c0.662,0,1.2,0.538,1.2,1.2c0,0.485-0.288,0.904-0.704,1.093l-4.399,2l0,0c-0.151,0.068-0.319,0.107-0.497,0.107
	c-0.662,0-1.199-0.537-1.199-1.2C22.4,270.714,22.688,270.296,23.104,270.107z M23.104,274.508L23.104,274.508l4.4-2l0,0
	c0.15-0.069,0.318-0.108,0.496-0.108c0.662,0,1.2,0.536,1.2,1.2c0,0.484-0.288,0.903-0.704,1.093l0,0l-4.399,2l0,0
	c-0.151,0.068-0.319,0.106-0.497,0.106c-0.662,0-1.199-0.537-1.199-1.2C22.4,275.113,22.688,274.695,23.104,274.508z M12,263.6
	c0.178,0,0.346,0.039,0.496,0.107l0,0l4.4,2l0,0c0.415,0.188,0.703,0.607,0.703,1.093c0,0.662-0.537,1.199-1.199,1.199
	c-0.178,0-0.346-0.038-0.497-0.106l0,0l-4.399-2.001l0,0c-0.416-0.188-0.704-0.607-0.704-1.092C10.8,264.137,11.338,263.6,12,263.6z
	 M12,267.999c0.178,0,0.346,0.039,0.496,0.108l0,0l4.4,2l0,0c0.415,0.188,0.703,0.606,0.703,1.092c0,0.663-0.537,1.2-1.199,1.2
	c-0.178,0-0.346-0.039-0.497-0.107l0,0l-4.399-2l0,0c-0.416-0.188-0.704-0.607-0.704-1.093C10.8,268.537,11.338,267.999,12,267.999z
	 M12,272.399c0.178,0,0.346,0.039,0.496,0.108l0,0l4.4,2l0,0c0.415,0.188,0.703,0.605,0.703,1.091c0,0.663-0.537,1.2-1.199,1.2
	c-0.178,0-0.346-0.038-0.497-0.106l0,0l-4.399-2l0,0c-0.416-0.189-0.704-0.608-0.704-1.093C10.8,272.936,11.338,272.399,12,272.399z
	"/>
<path fill-rule="evenodd" clip-rule="evenodd" fill="#606060" d="M32.256,116.147c0,0.432-0.699,1.131-1.131,1.131
	c-0.434,0-1.133-0.699-1.133-1.131c0-0.452,0.699-1.131,1.133-1.131C31.557,115.017,32.256,115.695,32.256,116.147z M31.145,135.003
	c-0.453,0-1.131-0.699-1.131-1.132c0-0.431,0.678-1.13,1.131-1.13s1.131,0.699,1.131,1.13
	C32.275,134.304,31.598,135.003,31.145,135.003z M34.414,118.286c0,0.452-0.699,1.131-1.131,1.131s-1.131-0.679-1.131-1.131
	c0-0.433,0.699-1.132,1.131-1.132S34.414,117.854,34.414,118.286z M33.305,132.843c-0.453,0-1.131-0.698-1.131-1.13
	s0.678-1.131,1.131-1.131c0.451,0,1.129,0.699,1.129,1.131S33.756,132.843,33.305,132.843z M35.463,130.664
	c-0.453,0-1.131-0.699-1.131-1.131c0-0.433,0.678-1.132,1.131-1.132c0.451,0,1.131,0.699,1.131,1.132
	C36.594,129.965,35.914,130.664,35.463,130.664z M36.572,120.466c0,0.452-0.697,1.13-1.109,1.13s-1.111-0.678-1.111-1.13
	s0.699-1.132,1.111-1.132S36.572,120.014,36.572,120.466z M38.752,122.604c0,0.452-0.699,1.151-1.131,1.151
	s-1.131-0.699-1.131-1.151c0-0.432,0.699-1.13,1.131-1.13S38.752,122.172,38.752,122.604z M37.621,128.505
	c-0.451,0-1.131-0.698-1.131-1.131c0-0.432,0.68-1.131,1.131-1.131c0.453,0,1.131,0.699,1.131,1.131
	C38.752,127.807,38.074,128.505,37.621,128.505z M40.008,126.448c-0.598,0-1.48-0.904-1.48-1.459c0-0.556,0.883-1.46,1.48-1.46
	c0.596,0,1.479,0.904,1.479,1.46C41.486,125.544,40.604,126.448,40.008,126.448z M42.393,123.755c-0.453,0-1.152-0.699-1.152-1.131
	s0.699-1.131,1.152-1.131c0.432,0,1.131,0.699,1.131,1.131S42.824,123.755,42.393,123.755z M43.502,127.374
	c0,0.452-0.699,1.131-1.131,1.131s-1.131-0.679-1.131-1.131c0-0.453,0.699-1.131,1.131-1.131S43.502,126.921,43.502,127.374z
	 M44.531,121.556c-0.453,0-1.131-0.68-1.131-1.11c0-0.432,0.678-1.111,1.131-1.111c0.451,0,1.131,0.68,1.131,1.111
	C45.662,120.876,44.982,121.556,44.531,121.556z M45.662,129.533c0,0.451-0.68,1.131-1.111,1.131s-1.109-0.68-1.109-1.131
	c0-0.452,0.678-1.132,1.109-1.132S45.662,129.081,45.662,129.533z M46.709,119.417c-0.451,0-1.129-0.699-1.129-1.131
	c0-0.433,0.678-1.132,1.129-1.132c0.434,0,1.133,0.699,1.133,1.132C47.842,118.718,47.143,119.417,46.709,119.417z M47.842,131.692
	c0,0.452-0.699,1.13-1.133,1.13c-0.432,0-1.129-0.678-1.129-1.13c0-0.433,0.697-1.132,1.129-1.132
	C47.143,130.561,47.842,131.26,47.842,131.692z M48.848,117.257c-0.432,0-1.131-0.698-1.131-1.131c0-0.431,0.699-1.13,1.131-1.13
	c0.453,0,1.131,0.699,1.131,1.13C49.979,116.559,49.301,117.257,48.848,117.257z M50,133.852c0,0.452-0.699,1.131-1.131,1.131
	s-1.131-0.679-1.131-1.131c0-0.453,0.699-1.132,1.131-1.132S50,133.398,50,133.852z"/>
<path fill-rule="evenodd" clip-rule="evenodd" fill="#5F5F5F" d="M39.5,26.5h-29c-0.828,0-1.5-0.673-1.5-1.501s0.672-1.5,1.5-1.5h29
	c0.828,0,1.5,0.672,1.5,1.5S40.328,26.5,39.5,26.5z M10.5,18.5C9.672,18.5,9,17.828,9,17c0-0.829,0.672-1.5,1.5-1.5h29
	c0.828,0,1.5,0.671,1.5,1.5c0,0.828-0.672,1.5-1.5,1.5H10.5 M10.5,31.5h29c0.828,0,1.5,0.672,1.5,1.5s-0.672,1.5-1.5,1.5h-29
	C9.672,34.5,9,33.828,9,33S9.672,31.5,10.5,31.5z"/>
<path fill-rule="evenodd" clip-rule="evenodd" fill="#FFFFFF" d="M31.799,84.451l-5.495-5.495c-1.116,0.659-2.413,1.045-3.804,1.045
	c-4.142,0-7.5-3.359-7.5-7.501s3.358-7.499,7.5-7.499c4.143,0,7.5,3.357,7.5,7.499c0,1.391-0.385,2.688-1.044,3.805l5.495,5.495
	 M34.451,81.8L34.451,81.8C34.79,82.139,35,82.606,35,83.125C35,84.16,34.16,85,33.125,85c-0.518,0-0.986-0.209-1.326-0.549l0,0
	 M22.5,66.875c-3.106,0-5.625,2.519-5.625,5.625c0,3.107,2.519,5.626,5.625,5.626s5.625-2.519,5.625-5.626
	C28.125,69.394,25.606,66.875,22.5,66.875z"/>
<rect y="100" fill="none" width="50" height="50"/>
<path fill-rule="evenodd" clip-rule="evenodd" fill="#5F5F5F" d="M40.753,210.412l-6.862,5.927c-0.225,0.213-0.588,0.213-0.814,0
	c-0.225-0.212-0.225-0.557,0-0.769l6.447-5.57l-6.447-5.569c-0.225-0.213-0.225-0.557,0-0.77c0.227-0.212,0.59-0.212,0.814,0
	l6.862,5.928c0.12,0.113,0.171,0.263,0.163,0.411C40.924,210.148,40.873,210.299,40.753,210.412z"/>
<path fill-rule="evenodd" clip-rule="evenodd" fill="#AFB1B1" d="M5.272,239.493l8.446-7.295c0.276-0.262,0.724-0.262,1.003,0
	c0.276,0.262,0.276,0.686,0,0.946l-7.936,6.856l7.936,6.854c0.276,0.263,0.276,0.686,0,0.947c-0.279,0.261-0.727,0.261-1.003,0
	l-8.446-7.296c-0.147-0.14-0.21-0.323-0.2-0.506C5.062,239.818,5.125,239.633,5.272,239.493z"/>
<path fill-rule="evenodd" clip-rule="evenodd" fill="#AFB1B1" d="M34.729,240.507l-8.446,7.295c-0.277,0.262-0.725,0.262-1.004,0
	c-0.275-0.262-0.275-0.686,0-0.946l7.936-6.856l-7.936-6.854c-0.275-0.263-0.275-0.686,0-0.947c0.279-0.261,0.727-0.261,1.004,0
	l8.446,7.296c0.146,0.14,0.209,0.323,0.199,0.506C34.938,240.182,34.875,240.367,34.729,240.507z"/>
<path fill-rule="evenodd" clip-rule="evenodd" fill="#5F5F5F" d="M34.007,173.841l-5.927-6.862c-0.213-0.225-0.213-0.589,0-0.814
	c0.212-0.225,0.557-0.225,0.769,0l5.57,6.447l5.569-6.447c0.213-0.225,0.557-0.225,0.77,0c0.212,0.226,0.212,0.59,0,0.814
	l-5.928,6.862c-0.113,0.12-0.263,0.171-0.411,0.163C34.271,174.012,34.12,173.961,34.007,173.841z"/>
<g>
	<g>
		<path fill-rule="evenodd" clip-rule="evenodd" fill="#FFFFFF" d="M31.291,338.5H8.708c-0.668,0-1.209,0.552-1.209,1.232v16.429
			c0,0.681,0.541,1.231,1.209,1.231h7.662v2.054l-1.613,1.644v0.41h10.484v-0.41l-1.613-1.644v-2.054h7.663
			c0.668,0,1.209-0.551,1.209-1.231v-16.429C32.5,339.052,31.959,338.5,31.291,338.5z M30.887,354.107H9.113v-13.964h21.774V354.107
			z M18.142,350.5c0.119,0,0.232-0.033,0.328-0.092l0.008-0.004l4.705-2.84c0.189-0.113,0.316-0.324,0.316-0.564
			s-0.127-0.45-0.316-0.564l-4.705-2.84c-0.002,0-0.004-0.002-0.006-0.003l-0.002-0.001c-0.096-0.059-0.209-0.092-0.328-0.092
			c-0.355,0-0.643,0.294-0.643,0.656v5.688C17.5,350.205,17.787,350.5,18.142,350.5z"/>
	</g>
</g>
</svg>
